<?xml version="1.0" encoding="UTF-8"?>
<svg id="Layer_1" xmlns="http://www.w3.org/2000/svg" version="1.1" viewBox="0 0 520 207.8">
  <!-- Generator: Adobe Illustrator 29.8.1, SVG Export Plug-In . SVG Version: 2.1.1 Build 2)  -->
  <defs>
    <style>
      .st0 {
      fill: #00000;
      }
    </style>
  </defs>
  <g id="xzI3Al">
    <g>
      <path class="st0"
        d="M207,52.8c20.8,1.5,50.7,6.7,50.1,33.5-.7,29.6-42.1,61.4-65.1,75.9-35.5,22.3-77.5,39-118.9,45.6l4-11.5c43.1-13.9,90.7-35.8,124-67,12.4-11.6,38.8-41.2,11.3-51.3s-20.2-3.5-26.6-2-14,11.1-17.4,13.6c-17.3,12.5-36.9,23.7-57.3,30.2.2-2.9.4-9.2,2.4-11.1s14.2-6.9,17.9-9.1c8.5-5.2,17-11,24.7-17.3l-42,13.5,10.9-27.6c19.4-7,39.6-11.5,60.1-13.9,17.8-21,19.4-43.3-15.8-34.8-15.3,3.7-29.6,12.8-43.2,20.3l4.2-20.7c15.4-7.6,32.4-15.3,49.5-18,27.2-4.3,49.7,4,36.4,35.4l-9.2,16.3Z" />
      <path class="st0"
        d="M92.9,149.8l-7.6,24.9c-19.3,9-67.1,23.8-81.2,1.4-15.2-24.1,15.3-59.1,32.4-74.3,25.8-23.1,57-40.2,88.5-54l-5,15.5c-27.6,14.3-95.9,55-95,90s16.2,15.1,27.1,13.1c14.6-2.7,27.8-10.1,40.9-16.6Z" />
      <path class="st0"
        d="M308,104.8c-5,4.6-16.5,4.4-21-.8-11.3-12.9,2.9-37.1,20.3-34,7.7,1.4,7.3,5.7,4.7,11.8-9-9.5-22.6-1.2-21.3,10.8s12.4,9.3,18.3,3.2c-.1,3.1-1,5.8-1,9,5.6-5.2,12.4-31.9,18.7-33.8s3.9-.5,5.6,0c5.4,1.6,7.9,23.5,9.7,29.3s0,3.1,2,3.5l9-32.6,3.4-.3c4.1,1.2,4.6,17.8,7.2,21.8,4.5-3.2,9.1-20.4,13.2-21.8s2.2-.2,3.3-.2l.8,6.5-1.8,28.5c6-5.2,14-31.9,20-34.5s5.3-1,7.6.4c4.7,2.8,6.8,29.8,9.4,36.1h-7.9s-1.1-9-1.1-9l-15.8.2-4.8,8.7-13.3.2v-18l-7.2,13.3c-9.1,10.9-7-7.6-11.3-12.3l-6.1,16.9h-12.3s-2.8-8.9-2.8-8.9l-13.7.2c-4.5,5.2-2.1,10.7-11.7,8.8,0-1,0-2,0-3ZM333,92.8c-1.9-3.8-1.2-8.9-4.5-12-3.7,3-4.2,8-6.5,12h11ZM405,92.8c0-1.7-1.9-14.2-5-12l-5,12h10Z" />
      <path class="st0"
        d="M119,69.8c-1.5,2.3-1.7,6.8-3.3,8.7s-17.8,11.3-22,14.5c-12.2,9-30,21.5-37.1,34.9-15.1,28.5,14.8,17.3,28.5,10.5s14.4-9.2,15-8.5c-1.4,3.3-2.9,12.3-5,14.5s-11.6,5.9-14,7c-10.9,4.8-46,17.8-47.9-2.1-1.7-16.9,30-43.8,42.6-53.2s41.2-27.9,43.3-26.2Z" />
      <path class="st0"
        d="M437,90.8l7,14c3-5.9,13.5-32.2,18.7-33.8s4-.5,5.6,0c6,1.8,7.8,30.6,10.7,36.8h-8s-2.7-8.9-2.7-8.9l-12.9-.2-5.4,8.6-14,1.5-8.5-19-3.6,17.9h-6.9c0,.1,6-36.9,6-36.9,6.1,0,12.1-2.5,17.9.6s4.5,18.4-3.9,19.4ZM428,86.8c4.4.9,12-3.3,8.6-8.1-.6-.8-5.7-2.1-6.6-1.5-1.8,1.2-2.2,7.4-2,9.6ZM468,92.8c-2.1-16.9-6.1-13.9-10,0h10Z" />
      <path class="st0"
        d="M331.7,113l6.7,25.8c1.6.2,2-1.3,2.7-2.3,3.3-5.1,8.4-20.1,11.8-23.2s4.2-2.3,6,.1,0,6.5,0,9.9c-.2,11.6,0,23-1,34.5h-8c-1.4-1.4,1.5-16.4.9-19.4s-.5-2.4-1.9-2.6c-2.1,4.2-7.5,21.3-13.3,19.9s-5.2-12.9-6.4-16.7,0-3.1-1.7-2.2-4.7,17.7-6.7,20.8h-7.9c0,.1,11.2-42.1,11.2-42.1,1.7-3.4,4.2-4.8,7.5-2.5Z" />
      <path class="st0"
        d="M498.8,112c29.3-2.1,25,41.1-.6,45.5s-29.6-43.4.6-45.5ZM494.7,122c-12.2,2.3-18.7,25.1-2.3,26.8,20.2,2.1,26.7-31.3,2.3-26.8Z" />
      <path class="st0"
        d="M295.7,112c8.7-.9,17.4,4,20.2,12.3,8.4,25.2-29.7,46.4-42.2,25.2-9.2-15.7,5.4-35.7,22-37.5ZM286.5,125.4c-16.7,14.6,1.5,32.1,15.9,19.4,14.6-12.8-1.7-31.8-15.9-19.4Z" />
      <path class="st0"
        d="M421.9,158.8l-10-.4-10.4-23.6-3.5,23-9,1,8.1-46.9c10.7.3,26.2-3.9,25.9,11.4-.2,10.7-8.8,11.9-9.1,15l8,20.5ZM402,131.8c12.7,2,18.3-13.3,2.1-10.9l-2.1,10.9Z" />
      <path class="st0"
        d="M392,111.8l-1,9h-17s-1,8-1,8h13s-1,9-1,9h-14s-1,11-1,11h17l-1,9h-24.5c-.2,0-1.1,1.5-1.5,1l7-47h25Z" />
      <path class="st0"
        d="M272.9,125.8c-6.4-6.1-14.6-7.4-21-.5-13.3,14.4,1.8,32.7,17,18.5,0,7.8.2,12.7-8.6,13.9-20.7,2.8-27.1-15.4-19-31.9s24.5-20.6,34.3-8.3l-2.8,8.4Z" />
      <path class="st0"
        d="M456,143.8c-2.3,6.5.4,11.8-7.9,13.6-42.3,9.2-21.3-64.9,13.5-41.6l-3.1,10c-15.9-18.7-36.7,16.9-18.6,22.6,7.6,2.4,10-2.1,16.1-4.5Z" />
      <path class="st0"
        d="M292,181.8c4.3-3.2,9.1-23.1,16.6-17.1,2.7,2.2,3.9,19.8,4.4,24.1l-4.6-.9-.4-5.1h-9.5c-3,.3-3.1,7.9-8.4,6v-3c-5,3.2-10.3,3.3-16,3l4.1-24.9c6.5,0,15.8-2.4,13.9,7.4s-2.8,3.5-2.8,4,3.8,4.3,2.9,6.5ZM306,170.8c-2.9-.9-6.7,7.4-6,8h7s-1-8-1-8ZM285.9,182.7l-.8-4.5-5-.4-1,5.9,6.9-1.1Z" />
      <path class="st0"
        d="M351,186.8c1.3,1,11.4-20.6,13.4-22.1,9.9-7.2,9.6,19.2,10.6,24.1-8.8.2-.7-7.1-12.6-6.1-6.7.6-4.1,4.9-7.1,5.9l-8.7.2-6.2-12-2,11-4.5,1,4.1-24.9c6.9-.8,17.7-1.3,14.4,8.9-1.8,5.5-7.5,4.2-1.5,13.9ZM347,168.8h-4.9c-4.6,9.1,5.6,7.6,4.9,0ZM362,178.8l6.6-1-2.1-7c-1.4.7-5.3,7.2-4.5,8Z" />
      <path class="st0"
        d="M472,188.8l4.1-24.9h5s-3,19.9-3,19.9c2.8-.4,7.2,1.1,9.5-1,3.8-3.4,8.5-23.9,16.5-18.6s3.3,19.2,4.8,23c-4.6,4.4-6,.1-5.9-4.4-2.6.1-5.9-.5-8.4,0-4.3.8-4.1,6-4.5,6h-18ZM500.9,170.8c-1.7-1.7-6,7.1-5,8h6s-1-8-1-8Z" />
      <polygon class="st0" points="474 111.8 465.9 157.7 457 157.8 465 111.8 474 111.8" />
      <path class="st0"
        d="M421.1,190.7l-2.6-3.7c-13.7,7.2-23.5-6.6-14-18.2,8.5-10.4,24.3-6.1,22.3,7.3-.8,5.3-6.6,7.6-.8,12.3l-4.9,2.4ZM415,183.8c-1.4-2.4-.6-5.9,2.5-5.6s4.2,3.5,4.4-2.9c.3-12.5-19.3-6.8-15.7,4.8,1.7,3.3,5.4,4,8.8,3.7Z" />
      <path class="st0"
        d="M392.9,176.8l2.1-12.9h5c.2,3.1-3.3,25-5.5,24.9l-10-13c-2.8-.1-.1,17.9-8.1,12l4.6-24c3.6-2.4,8.8,11.7,12,13Z" />
      <path class="st0"
        d="M485,105.8l4-24.9c27.1-3.7,18.6,30.1-4,24.9ZM491,100.8c10.6.8,14.8-15.4,2-15l-2,15Z" />
      <path class="st0"
        d="M331.7,175.5c-.7.9-3.2,1.2-3.6,2.9l3.9,10.4h-5.9c0-.1-4.6-11-4.6-11l-2.5,11h-4.9s4-24.9,4-24.9c3.6.4,11.4-1.1,14,1.5s1.3,8.3-.3,10.2ZM321,174.8c7.8.7,10.6-6.9,1-6l-1,6Z" />
      <path class="st0"
        d="M222,188.8l4.1-24.9c27.7-3.9,18.1,29-4.1,24.9ZM228,183.8c10.3,1.1,14.6-16.3,2-15l-2,15Z" />
      <path class="st0"
        d="M436,163.8l-2,20h5.9c0-.1,4.2-19.9,4.2-19.9l5,.5c-2.5,9.3-.4,26-14.5,24.6s-3.1-17.7-3-24.1l4.6-.9Z" />
      <path class="st0"
        d="M505,105.8l4.9-24.6,13.1-.4v5c-4.9.3-11.1-2-10,5l7-1-1.1,5.9-6.7.3c-4.2,7.8,3.9,4.1,8.8,4.9l-1,5h-15Z" />
      <polygon class="st0"
        points="262 163.8 260.8 168.7 252.1 168.9 251 172.8 258 172.8 258 177.8 250 177.8 248.9 183.3 259 183.8 259 188.8 244 188.8 248 163.8 262 163.8" />
      <polygon class="st0"
        points="465 163.8 462 183.8 471 183.8 469.8 188.7 457 188.8 460.1 165.5 461.6 163.9 465 163.8" />
      <polygon class="st0" points="457 163.8 452.9 188.7 448 188.8 452 163.8 457 163.8" />
      <path class="st0" d="M342,58.8c2.3,2.3-10.9,14.2-12,8.5s7.5-11.6,12-8.5Z" />
    </g>
  </g>
</svg>