<?xml version="1.0" encoding="UTF-8"?>
<svg id="Layer_1" xmlns="http://www.w3.org/2000/svg" version="1.1" viewBox="0 0 547 91">
  <!-- Generator: Adobe Illustrator 29.8.1, SVG Export Plug-In . SVG Version: 2.1.1 Build 2)  -->
  <polygon points="154 .2 200.5 58.1 203 1.2 219.5 1.2 221 2.7 221 88.5 219.5 90 204.5 90 159 34.1 159 90 140 90 138 .2 154 .2"/>
  <path d="M359,.2c25.4,7.2,32.6,43,8.1,56v1.3c-.1,0,19.9,33.5,19.9,33.5h-22l-17.5-29.9h-15.5c-1.9,9.8-.6,20-1,29.9h-21L312,.2h47ZM331,44.1h24.5c2.7,0,7-6.8,7.4-9.5,3.7-23.2-16.8-15.6-30.9-18.4.5,1.3-1,2.9-1,3.5v24.4Z"/>
  <path d="M437,.2c9.8,1.2,24.8,9.7,26.6,20l-12.1,8.9c-3.9-5.2-8.6-11.1-15.4-12.5-41.4-8.4-42.4,57-7.5,58.5s26-7.5,24.4-18h-18v-17h32v49.9h-14v-10c-21.1,19.9-53.8,9.1-63.8-16.7s3.4-55.6,31.8-63.1c5.1.5,11.1-.6,16,0Z"/>
  <path d="M298,.2c4.8,3.3,0,11.2,2,16h-45v21h38l-.2,13.4-1.3,1.6h-36.5v21.5l1.5,1.5h41.5v15h-62L234,.2h64Z"/>
  <polygon points="129 .2 129 90 104 90 111 .2 129 .2"/>
  <path d="M0,67.1l1.1-3.4c.4-15-.8-30.1-.1-45.1S2.1,6.6,3,1.7c1.2.4,2.8-.5,3.5-.5h23c.1,0,2.4,1,2.5,1.6L12,91H0v-23.9Z"/>
  <polygon points="98 23.1 37 23.1 43.2 1.9 101.7 1.4 104 2.8 98 23.1"/>
  <path d="M83,42.1c-4.4,7.9-8.7,16-14.5,22.9H25l6-22.9h52Z"/>
  <path d="M482.5,1.2l21.5,40.9,22-40.9h19l-30.9,56.5c-.4,1-1.1,5.8-1.1,6.8v25.4h-21l1.8-32.2L464,1.2h18.5Z"/>
</svg>