<?xml version="1.0" encoding="UTF-8"?>
<svg id="Layer_1" xmlns="http://www.w3.org/2000/svg" version="1.1" viewBox="0 0 473.3 129.5">
  <!-- Generator: Adobe Illustrator 29.8.1, SVG Export Plug-In . SVG Version: 2.1.1 Build 2)  -->
  <defs>
    <style>
      .st0 {
      fill: #00000;
      }
    </style>
  </defs>
  <g id="n9X5wd">
    <g>
      <path class="st0"
        d="M62.9.2v109.3H6.1V36.4l2.1-2.1h38.3c6.2-9.2,9-20.6,13.1-30.9s-.8-3.8,3.2-3.1ZM24.6,41.3h-15.6v43.3c0,.6,3,9.5,3.6,10.5,8.1,14.3,34.6,15,42.6.2.7-1.3,3.5-8.6,3.5-9.3v-44.7h-15.6v47.6c0,1.7-7.3,6.6-10.3,6.2s-8.1-6-8.1-9v-44.7Z" />
      <path class="st0"
        d="M64.3.2c4.1-.7,2.3,1,3.2,3.1,4.3,10.3,7.2,21.6,13.1,30.9h38.3l2.1,2.1v73.1h-56.8V.2ZM68.6,41.3v63.9h12.8v-45.4l15.6,45.4h19.9v-63.9h-12.8c-.2,13.6.1,27.3.5,40.8,0,2,2.5,3.6-1.2,3.2l-14.2-42.6-20.6-1.4Z" />
      <path class="st0"
        d="M111.2,129.3c-1.7,1.8-40.4-10.7-47.8-10.8-12.3-.2-32.5,8.9-45.5,10.6l-3.2-2c2.4-5.1,1.2-15,7.8-16.2l84.5.6,4.2,17.8Z" />
      <path class="st0"
        d="M316.3,34.2c8.2,1.7,9.3,14.7.7,17.8v2.1c4.9.6,5.5,9,8.5,12.8l-12.6-.2-6.6-12.6c-4.4-1.4-1,11.6-2.1,12.8h-11.4v-32.7c6.9,1,17.1-1.3,23.4,0Z" />
      <path class="st0"
        d="M172.2,34.2c2.9.5,8.9-1,11.1.3s7.4,14.3,11.6,15.3v-15.6s10,0,10,0v32.6c-15.1,3.9-12.7-9.2-22.7-15.6v15.6s-10,0-10,0v-32.6Z" />
      <path class="st0"
        d="M287.2,76.8c11.2.6,15.6,7.4,19.9,17,2.3.4,1.3-1.9,1.4-3.5.2-4-.1-8.1,0-12.1h9.9v31.2c-3,.2-8.4,1.3-11-.4s-6.6-13.2-10.3-15.2v15.6s-10,1.4-10,1.4v-34.1Z" />
      <path class="st0"
        d="M369.5,78.2c13.9-1.3,44.1-2.7,24.2,17.7l8.5,13.5c-15.3,4.6-11.9-6.2-21.3-12.8v12.8s-11.4,0-11.4,0v-31.2ZM389.4,85.3l-8.5-1.4v7.1c4,.6,8.6-.9,8.5-5.7Z" />
      <path class="st0"
        d="M357.7,81.6c4.1,4.1,4.2,13.1,3.2,18.6-2.4,14.4-34.7,16.6-34.1-7,.4-16.3,20.8-21.7,30.8-11.6ZM342.1,85.6c-6.8,2-5.6,20.4,5.2,16.6,4.9-1.7,6-20-5.2-16.6Z" />
      <path class="st0"
        d="M135.3,109.5v-31.2c14.3-.9,31.8-4,31.3,16.3-.5,19-17.9,15.1-31.3,14.9ZM146.7,102.4c12.1,2.1,12.1-19.1,0-17v17Z" />
      <path class="st0"
        d="M376.6,66.9v-29.1c0-.4-1.7-1.1-.8-2.1,12-3,29.2-4.4,30.7,12,2,21.7-13.3,19.7-29.9,19.3ZM386.6,41.3c.5,3.3-1.7,17.7,2.2,18.4,10.5-1.7,9.3-19.6-2.2-18.4Z" />
      <path class="st0"
        d="M443.3,66.9v-32.6h20.6c8.8,0,16.5,29-1.8,32.3-6,1.1-12.7,0-18.8.3ZM453.4,58.2c13.2,4.2,13-18.7-.1-16.9v16.9Z" />
      <path class="st0"
        d="M146.7,34.2v22c0,4.1,9.9,4.1,9.9,0v-22h11.4c.6,18.3,1.9,38-23.1,32.3-3.7-.8-9.5-6.8-9.5-10.3v-22h11.4Z" />
      <path class="st0"
        d="M428.9,34.4l11.5,32.4h-10.5c0,.1-2.2-5-2.2-5-1.3-.9-3.5-.8-5.1-.8-8.6,0-5.2,5.3-7.2,5.9h-10.5c0-.1,11.5-32.6,11.5-32.6h12.4Z" />
      <polygon class="st0"
        points="288.6 34.2 288.6 41.3 271.6 41.3 271.6 47 287.2 47 287.2 52 271.6 52.7 271.5 59 287.2 59 288.6 66.9 260.2 66.9 260.2 34.2 288.6 34.2" />
      <path class="st0"
        d="M172.2,78.9c.8-3.4,24.3.6,28.4-.7v5.7s-14.3.5-14.3.5c-2.9-.4-3.9,5-2,5.2h14.9s0,7.1,0,7.1h-15.6s0,5,0,5l17.1,1.5v7.7c-8.8-4.3-20.3,1.6-28.4-2.1v-29.8Z" />
      <path class="st0"
        d="M444.7,76.8l28.4,1.4v5.7c-2.7.2-16.1-.4-17,2.1-2.4,6.5,11.7,2.5,14.8,3.5,5.3,11.3-13.3,5.5-14.8,7.1v5s17,.7,17,.7c-.1,2.6,1.1,6.7-2.1,8.1s-21.6-3.8-26.3.4v-34.1Z" />
      <path class="st0"
        d="M344.2,43.8c-1.3-.8-4.5-9.9-7.4.3,9.4.8,23.3,4.7,17.7,17-4.2,9.2-30.6,8.7-29.1-5.7,8.4-1.8,9.3,1.7,15.1,5.4l4.7-3.3c-5.1-6.8-18.7-3.5-18.5-14.2.3-15.1,29.6-10.2,27-1.5-1.5,2.6-7.6,3.1-9.7,1.8Z" />
      <path class="st0"
        d="M234.5,34.4l5.8,21.1c7.7-8.2,1.9-25.1,18.4-21.3l-11.5,32.4c-1,.7-8.7.5-10.2,0-4-1.3-10.8-27.4-13.7-32.4h11.2Z" />
      <polygon class="st0"
        points="416.4 85.3 406.4 85.3 406.5 78.3 437.7 79.1 437.7 85.3 428.6 85.5 426.6 87.4 427 109.5 416.4 109.5 416.4 85.3" />
      <polygon class="st0"
        points="220.5 78.2 220.5 102.4 236.1 102.4 235.9 109.3 209.1 109.5 209.1 78.2 220.5 78.2" />
      <path class="st0" d="M359.6,34.2h11.4c.7.5-1.4,1.8-1.4,2.1v30.5h-9.9v-32.6Z" />
      <rect class="st0" x="210.5" y="34.2" width="9.9" height="32.6" />
    </g>
  </g>
</svg>